<svg width="266" height="282" viewBox="0 0 266 282" fill="none" xmlns="http://www.w3.org/2000/svg">
<path d="M23.459 69.1748L11 47L2.67121e-06 80.8251L23.459 69.1748Z" fill="#129CD3" class="svg-elem-1"></path>
<path d="M218 180.5L123 144L161.643 281.803L218 180.5Z" fill="#086F98" class="svg-elem-2"></path>
<path d="M50.1309 116.995L218 180.5L132.39 135.223L82 47L50.1309 116.995Z" fill="#F98701" class="svg-elem-3"></path>
<path d="M50.1224 117L82 47H11L50.1224 117Z" fill="#CB750D" class="svg-elem-4"></path>
<path d="M134 119L147 5L266 48.1154L134 119Z" fill="#08719B" class="svg-elem-5"></path>
<path d="M147 111.963L225.316 70L258.856 91.1443L154.5 120L147 111.963Z" fill="#055575" class="svg-elem-6"></path>
<path d="M134.5 118.5L147.842 0L82 47L132.545 136.436L218 180.5L148 111.5L134.5 118.5Z" fill="#F19A34" class="svg-elem-7"></path>
</svg>
