<svg width="96" height="103" viewBox="0 0 96 103" fill="none" xmlns="http://www.w3.org/2000/svg">
<path d="M47.5493 84.3627C68.8519 84.3627 86.1211 67.1252 86.1211 45.8616C86.1211 24.598 68.8519 7.36047 47.5493 7.36047C26.2467 7.36047 8.97745 24.598 8.97745 45.8616C8.97745 67.1252 26.2467 84.3627 47.5493 84.3627Z" fill="#F98701"/>
<path d="M23.266 48.9522C24.2239 47.8074 25.422 46.8866 26.7756 46.2547C28.1292 45.6229 29.6053 45.2954 31.0996 45.2954C32.5939 45.2954 34.07 45.6229 35.4236 46.2547C36.7771 46.8866 37.9752 47.8074 38.9332 48.9522C40.5724 47.3902 41.7053 45.374 42.1861 43.1635C42.6668 40.9529 42.4732 38.6493 41.6304 36.5496C40.7875 34.4498 39.3339 32.6502 37.4569 31.3826C35.58 30.115 33.3658 29.4375 31.0996 29.4375C28.8334 29.4375 26.6191 30.115 24.7422 31.3826C22.8653 32.6502 21.4117 34.4498 20.5688 36.5496C19.7259 38.6493 19.5324 40.9529 20.0131 43.1635C20.4938 45.374 21.6268 47.3902 23.266 48.9522Z" fill="white"/>
<path d="M53.8966 48.9522C54.8545 47.8074 56.0526 46.8866 57.4062 46.2547C58.7598 45.6229 60.2359 45.2953 61.7302 45.2953C63.2245 45.2953 64.7006 45.6229 66.0542 46.2547C67.4078 46.8866 68.6058 47.8074 69.5638 48.9522C71.203 47.3902 72.3359 45.374 72.8167 43.1635C73.2974 40.9529 73.1038 38.6493 72.261 36.5496C71.4181 34.4498 69.9645 32.6502 68.0876 31.3826C66.2106 30.115 63.9964 29.4375 61.7302 29.4375C59.464 29.4375 57.2498 30.115 55.3728 31.3826C53.4959 32.6502 52.0423 34.4498 51.1994 36.5496C50.3565 38.6493 50.163 40.9529 50.6437 43.1635C51.1244 45.374 52.2574 47.3902 53.8966 48.9522Z" fill="white"/>
<path d="M27.2296 40.8007C29.3849 40.8007 31.1321 39.0567 31.1321 36.9054C31.1321 34.7541 29.3849 33.0101 27.2296 33.0101C25.0744 33.0101 23.3272 34.7541 23.3272 36.9054C23.3272 39.0567 25.0744 40.8007 27.2296 40.8007Z" fill="#04709B"/>
<path d="M57.859 40.8007C60.0143 40.8007 61.7615 39.0567 61.7615 36.9054C61.7615 34.7541 60.0143 33.0101 57.859 33.0101C55.7038 33.0101 53.9566 34.7541 53.9566 36.9054C53.9566 39.0567 55.7038 40.8007 57.859 40.8007Z" fill="#04709B"/>
<path d="M19.7549 60.0164C22.2611 60.0164 24.2928 57.9884 24.2928 55.4868C24.2928 52.9852 22.2611 50.9573 19.7549 50.9573C17.2487 50.9573 15.2171 52.9852 15.2171 55.4868C15.2171 57.9884 17.2487 60.0164 19.7549 60.0164Z" fill="#0B6487"/>
<path d="M71.9404 60.0164C74.4466 60.0164 76.4783 57.9884 76.4783 55.4868C76.4783 52.9852 74.4466 50.9573 71.9404 50.9573C69.4342 50.9573 67.4025 52.9852 67.4025 55.4868C67.4025 57.9884 69.4342 60.0164 71.9404 60.0164Z" fill="#0B6487"/>
<path d="M45.8476 46.4277L42.4442 61.1488L48.1165 55.4869L45.8476 46.4277Z" fill="#043A50"/>
<path d="M63.3351 103.047L59.4712 99.81L59.5612 103.047H58.3611L58.2653 99.6243L53.0483 103.047H50.8643L58.2263 98.217L57.9411 88.0747L57.7281 80.415L58.9252 80.3821L59.1412 88.0747L59.4262 98.208L65.201 103.047H63.3351Z" fill="#043A50"/>
<path d="M45.1823 103.047L41.3184 99.81L41.4084 103.047H40.2115L40.1155 99.6243L34.8985 103.047H32.7145L40.0735 98.217L39.7885 88.0747L39.5755 80.415L40.7754 80.3821L40.9914 88.0747L41.2734 98.208L47.0484 103.047H45.1823Z" fill="#043A50"/>
<path d="M89.6987 44.3558H87.8987C87.8987 21.57 69.3271 3.03227 46.4993 3.03227C23.6717 3.03227 5.09994 21.57 5.09994 44.3558H3.29996C3.29996 20.5792 22.6791 1.2356 46.4993 1.2356C70.3197 1.2356 89.6987 20.5792 89.6987 44.3558Z" fill="#04709B"/>
<path d="M11.3446 60.4518C9.85483 60.4518 8.37962 60.1589 7.00323 59.5898C5.62683 59.0207 4.3762 58.1866 3.32275 57.1351C2.26931 56.0836 1.43367 54.8353 0.863544 53.4614C0.293423 52.0875 -1.14441e-05 50.615 -1.14441e-05 49.1279V43.466C-1.14441e-05 40.4627 1.19522 37.5824 3.32275 35.4588C5.45029 33.3352 8.33585 32.1421 11.3446 32.1421L11.3446 60.4518Z" fill="#043A50"/>
<path d="M83.7541 32.1421C85.2439 32.1421 86.7191 32.435 88.0955 33.0041C89.4719 33.5731 90.7225 34.4072 91.776 35.4588C92.8294 36.5103 93.6651 37.7586 94.2352 39.1325C94.8053 40.5064 95.0987 41.9789 95.0987 43.4659V49.1279C95.0987 50.6149 94.8053 52.0875 94.2352 53.4613C93.6651 54.8352 92.8294 56.0835 91.776 57.1351C90.7225 58.1866 89.4719 59.0207 88.0955 59.5898C86.7191 60.1588 85.2439 60.4517 83.7541 60.4517L83.7541 32.1421Z" fill="#043A50"/>
<path d="M48.1165 4.52953C47.0581 4.52953 46.1245 5.35015 45.5002 6.6106C44.95 4.71525 43.7941 3.39716 42.4442 3.39716C42.3524 3.40626 42.2614 3.42153 42.1717 3.44284C41.6528 1.41921 40.4468 0 39.0408 0C37.1611 0 35.6374 2.53495 35.6374 5.66193C35.6374 8.78892 37.1611 11.3239 39.0408 11.3239C39.1325 11.3148 39.2235 11.2995 39.3132 11.2782C39.8321 13.3018 41.0381 14.721 42.4442 14.721C43.5025 14.721 44.4362 13.9004 45.0604 12.64C45.6106 14.5353 46.7665 15.8534 48.1165 15.8534C49.9961 15.8534 51.5199 13.3184 51.5199 10.1915C51.5199 7.06447 49.9961 4.52953 48.1165 4.52953Z" fill="#043A50"/>
</svg>
