<svg width="102" height="102" viewBox="0 0 102 102" fill="none" xmlns="http://www.w3.org/2000/svg">
<path d="M51 102C79.1665 102 102 79.1665 102 51C102 22.8335 79.1665 0 51 0C22.8335 0 0 22.8335 0 51C0 79.1665 22.8335 102 51 102Z" fill="#F98701"/>
<path d="M18.8924 55.0939C20.159 53.5776 21.7431 52.3578 23.5329 51.5208C25.3226 50.6838 27.2743 50.25 29.2501 50.25C31.2259 50.25 33.1775 50.6838 34.9673 51.5208C36.757 52.3578 38.3411 53.5776 39.6077 55.0939C41.7536 53.0454 43.2439 50.4065 43.89 47.511C44.5361 44.6155 44.3091 41.5934 43.2377 38.8269C42.1663 36.0604 40.2986 33.6738 37.8707 31.9688C35.4429 30.2638 32.564 29.317 29.5981 29.2481C26.6322 29.1793 23.7125 29.9915 21.2081 31.5821C18.7038 33.1726 16.7274 35.4701 15.5288 38.1839C14.3302 40.8977 13.9632 43.906 14.4744 46.8283C14.9855 49.7507 16.3517 52.4559 18.4002 54.6018C18.5605 54.7696 18.7245 54.9337 18.8924 55.0939Z" fill="white"/>
<path d="M59.3924 55.0939C60.659 53.5776 62.2431 52.3578 64.0328 51.5208C65.8225 50.6838 67.7742 50.25 69.75 50.25C71.7258 50.25 73.6774 50.6838 75.4672 51.5208C77.2569 52.3578 78.841 53.5776 80.1077 55.0939C82.2536 53.0454 83.7438 50.4065 84.3899 47.511C85.0361 44.6155 84.8091 41.5934 83.7376 38.8269C82.6662 36.0604 80.7985 33.6738 78.3707 31.9688C75.9429 30.2638 73.064 29.317 70.098 29.2481C67.1321 29.1793 64.2124 29.9915 61.7081 31.5821C59.2037 33.1726 57.2273 35.4701 56.0287 38.1839C54.8301 40.8977 54.4632 43.906 54.9743 46.8283C55.4854 49.7507 56.8516 52.4559 58.9002 54.6018C59.0604 54.7696 59.2245 54.9337 59.3924 55.0939Z" fill="white"/>
<path d="M24.1331 44.2962C26.9828 44.2962 29.2929 41.9861 29.2929 39.1364C29.2929 36.2867 26.9828 33.9766 24.1331 33.9766C21.2834 33.9766 18.9733 36.2867 18.9733 39.1364C18.9733 41.9861 21.2834 44.2962 24.1331 44.2962Z" fill="#043A50"/>
<path d="M64.6316 44.2962C67.4813 44.2962 69.7914 41.9861 69.7914 39.1364C69.7914 36.2867 67.4813 33.9766 64.6316 33.9766C61.7819 33.9766 59.4717 36.2867 59.4717 39.1364C59.4717 41.9861 61.7819 44.2962 64.6316 44.2962Z" fill="#043A50"/>
<path d="M14.25 69.75C17.5637 69.75 20.25 67.0637 20.25 63.75C20.25 60.4363 17.5637 57.75 14.25 57.75C10.9363 57.75 8.25 60.4363 8.25 63.75C8.25 67.0637 10.9363 69.75 14.25 69.75Z" fill="#04709B"/>
<path d="M83.2501 69.75C86.5638 69.75 89.2501 67.0637 89.2501 63.75C89.2501 60.4363 86.5638 57.75 83.2501 57.75C79.9364 57.75 77.2501 60.4363 77.2501 63.75C77.2501 67.0637 79.9364 69.75 83.2501 69.75Z" fill="#04709B"/>
<path d="M48.7501 51.7498L44.2501 71.2498L51.7498 63.7502L48.7501 51.7498Z" fill="#043A50"/>
</svg>
